<?xml version="1.0" encoding="UTF-8" standalone="no"?>
<!DOCTYPE svg PUBLIC "-//W3C//DTD SVG 1.1//EN"
 "http://www.w3.org/Graphics/SVG/1.1/DTD/svg11.dtd">
<!-- Generated by graphviz version 8.0.1 (20230327.1645)
 -->
<!-- Pages: 1 -->
<svg width="368pt" height="500pt"
 viewBox="0.00 0.00 367.50 500.39" xmlns="http://www.w3.org/2000/svg" xmlns:xlink="http://www.w3.org/1999/xlink">
<g id="graph0" class="graph" transform="scale(1 1) rotate(0) translate(4 496.39)">
<polygon fill="white" stroke="none" points="-4,4 -4,-496.39 363.5,-496.39 363.5,4 -4,4"/>
<!-- a -->
<g id="node1" class="node">
<title>a</title>
<ellipse fill="none" stroke="black" cx="183" cy="-358.1" rx="72" ry="36"/>
<text text-anchor="middle" x="183" y="-361.9" font-family="Times New Roman,serif" font-size="14.00">a</text>
<text text-anchor="middle" x="183" y="-346.9" font-family="Times New Roman,serif" font-size="14.00">40</text>
</g>
<!-- b -->
<g id="node3" class="node">
<title>b</title>
<ellipse fill="none" stroke="black" cx="55" cy="-243.6" rx="55" ry="27.5"/>
<text text-anchor="middle" x="55" y="-247.4" font-family="Times New Roman,serif" font-size="14.00">b</text>
<text text-anchor="middle" x="55" y="-232.4" font-family="Times New Roman,serif" font-size="14.00">21</text>
</g>
<!-- a&#45;&gt;b -->
<g id="edge1" class="edge">
<title>a&#45;&gt;b</title>
<path fill="none" stroke="black" stroke-width="4.17" d="M148.02,-326.35C131.11,-311.49 110.76,-293.6 93.41,-278.36"/>
<polygon fill="black" stroke="black" stroke-width="4.17" points="95.32,-275.67 85.41,-271.8 90.51,-281.14 95.32,-275.67"/>
<text text-anchor="middle" x="126" y="-292.9" font-family="Times New Roman,serif" font-size="14.00">11</text>
</g>
<!-- c -->
<g id="node4" class="node">
<title>c</title>
<ellipse fill="none" stroke="black" cx="183" cy="-243.6" rx="55" ry="27.5"/>
<text text-anchor="middle" x="183" y="-247.4" font-family="Times New Roman,serif" font-size="14.00">c</text>
<text text-anchor="middle" x="183" y="-232.4" font-family="Times New Roman,serif" font-size="14.00">21</text>
</g>
<!-- a&#45;&gt;c -->
<g id="edge2" class="edge">
<title>a&#45;&gt;c</title>
<path fill="none" stroke="black" stroke-width="4.17" d="M183,-321.81C183,-310.9 183,-298.76 183,-287.4"/>
<polygon fill="black" stroke="black" stroke-width="4.17" points="186.65,-287.54 183,-277.54 179.35,-287.54 186.65,-287.54"/>
<text text-anchor="middle" x="190" y="-292.9" font-family="Times New Roman,serif" font-size="14.00">11</text>
</g>
<!-- d -->
<g id="node5" class="node">
<title>d</title>
<ellipse fill="none" stroke="black" cx="308" cy="-243.6" rx="51.5" ry="26.74"/>
<text text-anchor="middle" x="308" y="-247.4" font-family="Times New Roman,serif" font-size="14.00">d</text>
<text text-anchor="middle" x="308" y="-232.4" font-family="Times New Roman,serif" font-size="14.00">17</text>
</g>
<!-- a&#45;&gt;d -->
<g id="edge3" class="edge">
<title>a&#45;&gt;d</title>
<path fill="none" stroke="black" stroke-width="4.22" d="M217.49,-326.06C234.12,-311.09 254.09,-293.12 271.03,-277.87"/>
<polygon fill="black" stroke="black" stroke-width="4.22" points="273.78,-280.76 278.74,-271.33 268.84,-275.27 273.78,-280.76"/>
<text text-anchor="middle" x="263" y="-292.9" font-family="Times New Roman,serif" font-size="14.00">13</text>
</g>
<!-- e -->
<g id="node2" class="node">
<title>e</title>
<ellipse fill="none" stroke="black" cx="183" cy="-129.1" rx="72" ry="36"/>
<text text-anchor="middle" x="183" y="-132.9" font-family="Times New Roman,serif" font-size="14.00">e</text>
<text text-anchor="middle" x="183" y="-117.9" font-family="Times New Roman,serif" font-size="14.00">40</text>
</g>
<!-- end -->
<g id="node7" class="node">
<title>end</title>
<ellipse fill="red" stroke="black" cx="183" cy="-28.05" rx="24.09" ry="24.09"/>
<ellipse fill="none" stroke="black" cx="183" cy="-28.05" rx="28.1" ry="28.1"/>
<text text-anchor="middle" x="183" y="-24.35" font-family="Times New Roman,serif" font-size="14.00">end</text>
</g>
<!-- e&#45;&gt;end -->
<g id="edge8" class="edge">
<title>e&#45;&gt;end</title>
<path fill="none" stroke="black" stroke-width="0.1" d="M183,-92.62C183,-84.08 183,-74.93 183,-66.32"/>
<polygon fill="black" stroke="black" stroke-width="0.1" points="186.5,-66.51 183,-56.51 179.5,-66.51 186.5,-66.51"/>
</g>
<!-- b&#45;&gt;e -->
<g id="edge4" class="edge">
<title>b&#45;&gt;e</title>
<path fill="none" stroke="black" stroke-width="4.17" d="M81.52,-219.29C97.38,-205.35 117.98,-187.24 136.47,-170.99"/>
<polygon fill="black" stroke="black" stroke-width="4.17" points="139.14,-173.98 144.25,-164.64 134.33,-168.51 139.14,-173.98"/>
<text text-anchor="middle" x="126" y="-186.9" font-family="Times New Roman,serif" font-size="14.00">11</text>
</g>
<!-- c&#45;&gt;e -->
<g id="edge5" class="edge">
<title>c&#45;&gt;e</title>
<path fill="none" stroke="black" stroke-width="4.17" d="M183,-215.65C183,-205.28 183,-193.07 183,-181.17"/>
<polygon fill="black" stroke="black" stroke-width="4.17" points="186.65,-181.34 183,-171.34 179.35,-181.34 186.65,-181.34"/>
<text text-anchor="middle" x="190" y="-186.9" font-family="Times New Roman,serif" font-size="14.00">11</text>
</g>
<!-- d&#45;&gt;e -->
<g id="edge6" class="edge">
<title>d&#45;&gt;e</title>
<path fill="none" stroke="black" stroke-width="4.22" d="M282.7,-219.83C267.33,-205.99 247.23,-187.9 229.11,-171.59"/>
<polygon fill="black" stroke="black" stroke-width="4.22" points="231.16,-168.87 221.26,-164.93 226.22,-174.36 231.16,-168.87"/>
<text text-anchor="middle" x="263" y="-186.9" font-family="Times New Roman,serif" font-size="14.00">13</text>
</g>
<!-- start -->
<g id="node6" class="node">
<title>start</title>
<ellipse fill="green" stroke="black" cx="183" cy="-461.74" rx="26.78" ry="26.78"/>
<ellipse fill="none" stroke="black" cx="183" cy="-461.74" rx="30.8" ry="30.8"/>
<text text-anchor="middle" x="183" y="-458.04" font-family="Times New Roman,serif" font-size="14.00">start</text>
</g>
<!-- start&#45;&gt;a -->
<g id="edge7" class="edge">
<title>start&#45;&gt;a</title>
<path fill="none" stroke="black" stroke-width="0.1" d="M183,-430.52C183,-422.27 183,-413.15 183,-404.27"/>
<polygon fill="black" stroke="black" stroke-width="0.1" points="186.5,-404.39 183,-394.39 179.5,-404.39 186.5,-404.39"/>
</g>
</g>
</svg>
