<?xml version="1.0" encoding="UTF-8" standalone="no"?>
<!DOCTYPE svg PUBLIC "-//W3C//DTD SVG 1.1//EN"
 "http://www.w3.org/Graphics/SVG/1.1/DTD/svg11.dtd">
<!-- Generated by graphviz version 8.0.5 (20230430.1635)
 -->
<!-- Pages: 1 -->
<svg width="620pt" height="699pt"
 viewBox="0.00 0.00 620.00 698.96" xmlns="http://www.w3.org/2000/svg" xmlns:xlink="http://www.w3.org/1999/xlink">
<g id="graph0" class="graph" transform="scale(1 1) rotate(0) translate(4 694.96)">
<polygon fill="white" stroke="none" points="-4,4 -4,-694.96 616,-694.96 616,4 -4,4"/>
<!-- a -->
<g id="node1" class="node">
<title>a</title>
<ellipse fill="none" stroke="black" cx="342" cy="-520.74" rx="144" ry="72"/>
<text text-anchor="middle" x="342" y="-523.19" font-family="Times New Roman,serif" font-size="14.00">a</text>
<text text-anchor="middle" x="342" y="-507.44" font-family="Times New Roman,serif" font-size="14.00">40</text>
</g>
<!-- b -->
<g id="node3" class="node">
<title>b</title>
<ellipse fill="none" stroke="black" cx="108" cy="-342.99" rx="108" ry="54"/>
<text text-anchor="middle" x="108" y="-345.44" font-family="Times New Roman,serif" font-size="14.00">b</text>
<text text-anchor="middle" x="108" y="-329.69" font-family="Times New Roman,serif" font-size="14.00">21</text>
</g>
<!-- a&#45;&gt;b -->
<g id="edge1" class="edge">
<title>a&#45;&gt;b</title>
<path fill="none" stroke="black" stroke-width="4.5" d="M262.78,-460.24C235.89,-440.04 206.01,-417.6 179.74,-397.87"/>
<polygon fill="black" stroke="black" stroke-width="4.5" points="181.52,-394.28 171.16,-391.42 176.79,-400.57 181.52,-394.28"/>
<text text-anchor="middle" x="224.75" y="-417.44" font-family="Times New Roman,serif" font-size="14.00">11</text>
</g>
<!-- c -->
<g id="node4" class="node">
<title>c</title>
<ellipse fill="none" stroke="black" cx="342" cy="-342.99" rx="108" ry="54"/>
<text text-anchor="middle" x="342" y="-345.44" font-family="Times New Roman,serif" font-size="14.00">c</text>
<text text-anchor="middle" x="342" y="-329.69" font-family="Times New Roman,serif" font-size="14.00">21</text>
</g>
<!-- a&#45;&gt;c -->
<g id="edge2" class="edge">
<title>a&#45;&gt;c</title>
<path fill="none" stroke="black" stroke-width="4.5" d="M342,-448.25C342,-436.69 342,-424.74 342,-413.23"/>
<polygon fill="black" stroke="black" stroke-width="4.5" points="345.94,-413.34 342,-403.34 338.06,-413.34 345.94,-413.34"/>
<text text-anchor="middle" x="348.75" y="-417.44" font-family="Times New Roman,serif" font-size="14.00">11</text>
</g>
<!-- d -->
<g id="node5" class="node">
<title>d</title>
<ellipse fill="none" stroke="black" cx="540" cy="-342.99" rx="72" ry="36"/>
<text text-anchor="middle" x="540" y="-345.44" font-family="Times New Roman,serif" font-size="14.00">d</text>
<text text-anchor="middle" x="540" y="-329.69" font-family="Times New Roman,serif" font-size="14.00">17</text>
</g>
<!-- a&#45;&gt;d -->
<g id="edge3" class="edge">
<title>a&#45;&gt;d</title>
<path fill="none" stroke="black" stroke-width="6" d="M412.09,-457.53C439.11,-433.54 469.29,-406.75 493.55,-385.22"/>
<polygon fill="black" stroke="black" stroke-width="6" points="497.3,-389.36 501.29,-378.8 490.33,-381.51 497.3,-389.36"/>
<text text-anchor="middle" x="464.75" y="-417.44" font-family="Times New Roman,serif" font-size="14.00">13</text>
</g>
<!-- e -->
<g id="node2" class="node">
<title>e</title>
<ellipse fill="none" stroke="black" cx="342" cy="-165.24" rx="144" ry="72"/>
<text text-anchor="middle" x="342" y="-167.69" font-family="Times New Roman,serif" font-size="14.00">e</text>
<text text-anchor="middle" x="342" y="-151.94" font-family="Times New Roman,serif" font-size="14.00">40</text>
</g>
<!-- end -->
<g id="node7" class="node">
<title>end</title>
<ellipse fill="red" stroke="black" cx="342" cy="-28.12" rx="24.12" ry="24.12"/>
<ellipse fill="none" stroke="black" cx="342" cy="-28.12" rx="28.12" ry="28.12"/>
<text text-anchor="middle" x="342" y="-22.69" font-family="Times New Roman,serif" font-size="14.00">end</text>
</g>
<!-- e&#45;&gt;end -->
<g id="edge8" class="edge">
<title>e&#45;&gt;end</title>
<path fill="none" stroke="black" stroke-width="0.1" d="M342,-93.12C342,-83.9 342,-74.76 342,-66.41"/>
<polygon fill="black" stroke="black" stroke-width="0.1" points="345.5,-66.65 342,-56.65 338.5,-66.65 345.5,-66.65"/>
</g>
<!-- b&#45;&gt;e -->
<g id="edge4" class="edge">
<title>b&#45;&gt;e</title>
<path fill="none" stroke="black" stroke-width="4.5" d="M167.35,-297.41C192.48,-278.54 222.33,-256.11 250.19,-235.19"/>
<polygon fill="black" stroke="black" stroke-width="4.5" points="253.19,-237.86 258.83,-228.7 248.46,-231.56 253.19,-237.86"/>
<text text-anchor="middle" x="224.75" y="-257.69" font-family="Times New Roman,serif" font-size="14.00">11</text>
</g>
<!-- c&#45;&gt;e -->
<g id="edge5" class="edge">
<title>c&#45;&gt;e</title>
<path fill="none" stroke="black" stroke-width="4.5" d="M342,-288.78C342,-277.54 342,-265.4 342,-253.28"/>
<polygon fill="black" stroke="black" stroke-width="4.5" points="345.94,-253.44 342,-243.44 338.06,-253.44 345.94,-253.44"/>
<text text-anchor="middle" x="348.75" y="-257.69" font-family="Times New Roman,serif" font-size="14.00">11</text>
</g>
<!-- d&#45;&gt;e -->
<g id="edge6" class="edge">
<title>d&#45;&gt;e</title>
<path fill="none" stroke="black" stroke-width="6" d="M505.51,-311.37C482.92,-291.32 452.39,-264.22 423.82,-238.87"/>
<polygon fill="black" stroke="black" stroke-width="6" points="427.12,-235.22 416.16,-232.51 420.15,-243.07 427.12,-235.22"/>
<text text-anchor="middle" x="464.75" y="-257.69" font-family="Times New Roman,serif" font-size="14.00">13</text>
</g>
<!-- start -->
<g id="node6" class="node">
<title>start</title>
<ellipse fill="green" stroke="black" cx="342" cy="-660.35" rx="26.61" ry="26.61"/>
<ellipse fill="none" stroke="black" cx="342" cy="-660.35" rx="30.61" ry="30.61"/>
<text text-anchor="middle" x="342" y="-654.92" font-family="Times New Roman,serif" font-size="14.00">start</text>
</g>
<!-- start&#45;&gt;a -->
<g id="edge7" class="edge">
<title>start&#45;&gt;a</title>
<path fill="none" stroke="black" stroke-width="0.1" d="M342,-629.49C342,-621.45 342,-612.36 342,-602.94"/>
<polygon fill="black" stroke="black" stroke-width="0.1" points="345.5,-603.04 342,-593.04 338.5,-603.04 345.5,-603.04"/>
</g>
</g>
</svg>
