<?xml version="1.0" encoding="UTF-8" standalone="no"?>
<!DOCTYPE svg PUBLIC "-//W3C//DTD SVG 1.1//EN"
 "http://www.w3.org/Graphics/SVG/1.1/DTD/svg11.dtd">
<!-- Generated by graphviz version 8.0.1 (20230327.1645)
 -->
<!-- Pages: 1 -->
<svg width="417pt" height="500pt"
 viewBox="0.00 0.00 417.02 500.39" xmlns="http://www.w3.org/2000/svg" xmlns:xlink="http://www.w3.org/1999/xlink">
<g id="graph0" class="graph" transform="scale(1 1) rotate(0) translate(4 496.39)">
<polygon fill="white" stroke="none" points="-4,4 -4,-496.39 413.02,-496.39 413.02,4 -4,4"/>
<!-- a -->
<g id="node1" class="node">
<title>a</title>
<ellipse fill="none" stroke="black" cx="143.52" cy="-358.1" rx="72" ry="36"/>
<text text-anchor="middle" x="143.52" y="-361.9" font-family="Times New Roman,serif" font-size="14.00">a</text>
<text text-anchor="middle" x="143.52" y="-346.9" font-family="Times New Roman,serif" font-size="14.00">40</text>
</g>
<!-- e -->
<g id="node2" class="node">
<title>e</title>
<ellipse fill="none" stroke="black" cx="120.52" cy="-129.1" rx="72" ry="36"/>
<text text-anchor="middle" x="120.52" y="-132.9" font-family="Times New Roman,serif" font-size="14.00">e</text>
<text text-anchor="middle" x="120.52" y="-117.9" font-family="Times New Roman,serif" font-size="14.00">40</text>
</g>
<!-- a&#45;&gt;e -->
<g id="edge1" class="edge">
<title>a&#45;&gt;e</title>
<path fill="none" stroke="black" stroke-width="1.67" d="M86.08,-336.18C57.29,-322.43 25.1,-301.31 8.52,-271.1 -3.24,-249.66 -2.29,-238.02 8.52,-216.1 19.65,-193.51 39.88,-175.21 60.11,-161.39"/>
<polygon fill="black" stroke="black" stroke-width="1.67" points="61.52,-164.34 68,-155.96 57.71,-158.47 61.52,-164.34"/>
<text text-anchor="middle" x="12.02" y="-239.9" font-family="Times New Roman,serif" font-size="14.00">5</text>
</g>
<!-- b -->
<g id="node3" class="node">
<title>b</title>
<ellipse fill="none" stroke="black" cx="79.52" cy="-243.6" rx="55" ry="27.5"/>
<text text-anchor="middle" x="79.52" y="-247.4" font-family="Times New Roman,serif" font-size="14.00">b</text>
<text text-anchor="middle" x="79.52" y="-232.4" font-family="Times New Roman,serif" font-size="14.00">21</text>
</g>
<!-- a&#45;&gt;b -->
<g id="edge2" class="edge">
<title>a&#45;&gt;b</title>
<path fill="none" stroke="black" stroke-width="1.83" d="M124.15,-323.04C116.54,-309.67 107.8,-294.31 100.08,-280.74"/>
<polygon fill="black" stroke="black" stroke-width="1.83" points="103.14,-279.28 95.15,-272.32 97.06,-282.74 103.14,-279.28"/>
<text text-anchor="middle" x="118.52" y="-292.9" font-family="Times New Roman,serif" font-size="14.00">11</text>
</g>
<!-- c -->
<g id="node4" class="node">
<title>c</title>
<ellipse fill="none" stroke="black" cx="207.52" cy="-243.6" rx="55" ry="27.5"/>
<text text-anchor="middle" x="207.52" y="-247.4" font-family="Times New Roman,serif" font-size="14.00">c</text>
<text text-anchor="middle" x="207.52" y="-232.4" font-family="Times New Roman,serif" font-size="14.00">21</text>
</g>
<!-- a&#45;&gt;c -->
<g id="edge3" class="edge">
<title>a&#45;&gt;c</title>
<path fill="none" stroke="black" stroke-width="1.83" d="M162.9,-323.04C170.5,-309.67 179.24,-294.31 186.96,-280.74"/>
<polygon fill="black" stroke="black" stroke-width="1.83" points="189.99,-282.74 191.89,-272.32 183.9,-279.28 189.99,-282.74"/>
<text text-anchor="middle" x="188.52" y="-292.9" font-family="Times New Roman,serif" font-size="14.00">11</text>
</g>
<!-- d -->
<g id="node5" class="node">
<title>d</title>
<ellipse fill="none" stroke="black" cx="332.52" cy="-243.6" rx="51.5" ry="26.74"/>
<text text-anchor="middle" x="332.52" y="-247.4" font-family="Times New Roman,serif" font-size="14.00">d</text>
<text text-anchor="middle" x="332.52" y="-232.4" font-family="Times New Roman,serif" font-size="14.00">17</text>
</g>
<!-- a&#45;&gt;d -->
<g id="edge4" class="edge">
<title>a&#45;&gt;d</title>
<path fill="none" stroke="black" stroke-width="1.86" d="M189.27,-329.86C219.67,-311.77 259.32,-288.17 289.2,-270.38"/>
<polygon fill="black" stroke="black" stroke-width="1.86" points="290.53,-273.47 297.33,-265.35 286.95,-267.46 290.53,-273.47"/>
<text text-anchor="middle" x="261.52" y="-292.9" font-family="Times New Roman,serif" font-size="14.00">13</text>
</g>
<!-- end -->
<g id="node7" class="node">
<title>end</title>
<ellipse fill="red" stroke="black" cx="120.52" cy="-28.05" rx="24.09" ry="24.09"/>
<ellipse fill="none" stroke="black" cx="120.52" cy="-28.05" rx="28.1" ry="28.1"/>
<text text-anchor="middle" x="120.52" y="-24.35" font-family="Times New Roman,serif" font-size="14.00">end</text>
</g>
<!-- e&#45;&gt;end -->
<g id="edge10" class="edge">
<title>e&#45;&gt;end</title>
<path fill="none" stroke="black" stroke-width="0.1" d="M120.52,-92.62C120.52,-84.08 120.52,-74.93 120.52,-66.32"/>
<polygon fill="black" stroke="black" stroke-width="0.1" points="124.02,-66.51 120.52,-56.51 117.02,-66.51 124.02,-66.51"/>
</g>
<!-- b&#45;&gt;e -->
<g id="edge5" class="edge">
<title>b&#45;&gt;e</title>
<path fill="none" stroke="black" stroke-width="1.83" d="M89.13,-216.22C93.5,-204.25 98.79,-189.73 103.77,-176.05"/>
<polygon fill="black" stroke="black" stroke-width="1.83" points="107.73,-177.43 107.86,-166.83 101.15,-175.03 107.73,-177.43"/>
<text text-anchor="middle" x="107.52" y="-186.9" font-family="Times New Roman,serif" font-size="14.00">11</text>
</g>
<!-- c&#45;&gt;e -->
<g id="edge6" class="edge">
<title>c&#45;&gt;e</title>
<path fill="none" stroke="black" stroke-width="1.83" d="M188.21,-217.63C177.93,-204.33 165.01,-187.62 153.21,-172.37"/>
<polygon fill="black" stroke="black" stroke-width="1.83" points="155.94,-170.88 147.05,-165.11 150.4,-175.16 155.94,-170.88"/>
<text text-anchor="middle" x="179.52" y="-186.9" font-family="Times New Roman,serif" font-size="14.00">11</text>
</g>
<!-- d&#45;&gt;e -->
<g id="edge7" class="edge">
<title>d&#45;&gt;e</title>
<path fill="none" stroke="black" stroke-width="1.86" d="M297.04,-223.77C265.04,-206.78 217.35,-181.48 179.6,-161.45"/>
<polygon fill="black" stroke="black" stroke-width="1.86" points="181.71,-158.54 171.24,-156.95 178.43,-164.73 181.71,-158.54"/>
<text text-anchor="middle" x="252.52" y="-186.9" font-family="Times New Roman,serif" font-size="14.00">13</text>
</g>
<!-- d&#45;&gt;d -->
<g id="edge8" class="edge">
<title>d&#45;&gt;d</title>
<path fill="none" stroke="black" stroke-width="1.6" d="M380.92,-253.4C392.99,-252.71 402.02,-249.44 402.02,-243.6 402.02,-239.85 398.32,-237.16 392.48,-235.53"/>
<polygon fill="black" stroke="black" stroke-width="1.6" points="393.33,-231.82 382.92,-233.79 392.28,-238.74 393.33,-231.82"/>
<text text-anchor="middle" x="405.52" y="-239.9" font-family="Times New Roman,serif" font-size="14.00">4</text>
</g>
<!-- start -->
<g id="node6" class="node">
<title>start</title>
<ellipse fill="green" stroke="black" cx="143.52" cy="-461.74" rx="26.78" ry="26.78"/>
<ellipse fill="none" stroke="black" cx="143.52" cy="-461.74" rx="30.8" ry="30.8"/>
<text text-anchor="middle" x="143.52" y="-458.04" font-family="Times New Roman,serif" font-size="14.00">start</text>
</g>
<!-- start&#45;&gt;a -->
<g id="edge9" class="edge">
<title>start&#45;&gt;a</title>
<path fill="none" stroke="black" stroke-width="0.1" d="M143.52,-430.52C143.52,-422.27 143.52,-413.15 143.52,-404.27"/>
<polygon fill="black" stroke="black" stroke-width="0.1" points="147.02,-404.39 143.52,-394.39 140.02,-404.39 147.02,-404.39"/>
</g>
</g>
</svg>
